<svg xmlns="http://www.w3.org/2000/svg" viewBox="0 0 235.26 45.64"><defs><style>.cls-1{fill:none;stroke:#e84425;stroke-miterlimit:10;}</style></defs><g id="Capa_2" data-name="Capa 2"><g id="Capa_1-2" data-name="Capa 1"><path class="cls-1" d="M234.55,22.82c-.78-.79-3.42-1.44-7.3-2q-.51-8.61-5.56-13.71-5.64-5.67-16.2-5.67H188V18.57l-5.8-.12a11.83,11.83,0,0,0,.88-4.63,11.14,11.14,0,0,0-4-9q-4-3.33-11.49-3.33H147.35V18.18l-14.82-.05,11.1-16.67H132.29l-3.3,5q-2.16,3.3-5,7.92-4.92-7.74-5-7.92l-3.24-5h-11.7l11,16.61L99,18l4.54-16.56H92.93L89.33,16.1,88.9,18l-6.3,0c-.13-.63-.27-1.25-.41-1.86L78.77,1.46H68.63L65.21,16.1c-.13.56-.26,1.17-.4,1.8l-6.31,0c-.15-.59-.29-1.18-.43-1.78L54.53,1.46H43.91l4.48,16.39-23.12-.08A13.33,13.33,0,0,1,20.54,16,3.81,3.81,0,0,1,19,12.74q0-4.32,6.54-4.32,4.08,0,6,1.44a5.82,5.82,0,0,1,2.07,4.56h9.6q-.3-6.72-4.8-10.32T25.31.5Q17.33.5,13,3.92a11.14,11.14,0,0,0-4.35,9.24,13.5,13.5,0,0,0,.75,4.56l-8.88,0v5.13a5.12,5.12,0,0,0,5.13,5.12l23.71-.08a11.18,11.18,0,0,1,3.14,1.23,3.58,3.58,0,0,1,1.59,3.21q0,4.92-7.26,4.92-4.68,0-6.93-1.56t-2.31-5.52H7.73q.06,7.08,4.92,11t13.8,4q8.52,0,13.32-3.48t4.8-10a13.59,13.59,0,0,0-.52-3.83l7.07,0,4.49,16.4H67l3.6-15.12c.1-.46.19-.89.29-1.34l5.74,0,.33,1.36,3.54,15.12H91.79l4.53-16.55,18.2-.06L103.19,44.18h11.52l3.54-5.34q4.56-7,5.46-8.52,3,4.74,5.52,8.52l3.54,5.34h11.76L133.29,27.51l14.06-.05V44.18h10.14V28.46h8.28q3.24,0,4.71,1.35t1.59,4.89l.18,4.8a10.4,10.4,0,0,0,1,4.68h10.44a8.66,8.66,0,0,1-1.2-4.62l-.3-6a13.91,13.91,0,0,0-1.47-6.3l0,0,7.26-.15V44.18h17.52q10.56,0,16.2-5.67,5.06-5.1,5.56-13.71C231.13,24.26,233.77,23.61,234.55,22.82ZM166.25,9.56q6.36,0,6.36,5.58a6,6,0,0,1-.78,3.15c-5.63-.07-10.6-.09-14.34-.1V9.56Zm31.86.48h7.2q5.52,0,8.49,3.21a11.67,11.67,0,0,1,2.77,6.54c-5.54-.4-11.91-.7-18.46-.93ZM213.8,32.39q-3,3.21-8.49,3.21h-7.2V26.78c6.55-.23,12.92-.53,18.46-.93A11.64,11.64,0,0,1,213.8,32.39Z"/></g></g></svg>